<svg width="16" height="16" xmlns="http://www.w3.org/2000/svg">
  <title/>

  <desc/>
  <g>
    <title>background</title>
    <rect x="-1" y="-1" width="582" height="402" id="canvas_background" fill="none"/>
  </g>
  <g>
    <title>Layer 1</title>
    <path stroke="null" d="m4.8352,8.7912l6.3296,0l0,-1.5824l-6.3296,0l0,1.5824l0,0zm-3.24392,-0.7912c0,-1.81976 1.42416,-3.24392 3.24392,-3.24392l2.3736,0l0,-1.50328l-2.3736,0c-2.61096,0 -4.7472,2.13624 -4.7472,4.7472c0,2.61096 2.13624,4.7472 4.7472,4.7472l2.3736,0l0,-1.50328l-2.3736,0c-1.81976,0 -3.24392,-1.42416 -3.24392,-3.24392l0,0zm9.57351,-4.7472l-2.3736,0l0,1.50328l2.3736,0c1.81976,0 3.24392,1.42416 3.24392,3.24392c0,1.81976 -1.42416,3.24392 -3.24392,3.24392l-2.3736,0l0,1.50328l2.3736,0c2.61096,0 4.7472,-2.13624 4.7472,-4.7472c0,-2.61096 -2.13624,-4.7472 -4.7472,-4.7472l0,0z" id="Shape" fill="#7f7f7f"/>
  </g>
</svg>