<svg xmlns="http://www.w3.org/2000/svg" enable-background="new 0 0 24 24" height="16" width="16" style="">
  <rect id="backgroundrect" width="100%" height="100%" x="0" y="0" fill="none" stroke="none" class="" style=""/>
  <g class="currentLayer" style="">
    <title>Layer 1</title>
    <path d="m7.999999919706941,11.483594735173167 c-0.1520744699288369,0 -0.2974724997144569,-0.06326891090745489 -0.4020700619581927,-0.17474270631582758 l-3.894590083543373,-4.142607261797627 c-0.33753114057375927,-0.3585238284755773 -0.08679372186182405,-0.9550592741744349 0.4020700619581927,-0.9550592741744349 h2.0400233770941476 v-4.330907591879339 c0,-0.5189557097051941 0.4161647689272074,-0.9415016504085522 0.9272833532246129,-0.9415016504085522 h1.8545667064492255 c0.5111185842974061,0 0.9272833532246129,0.4225459407033591 0.9272833532246129,0.9415016504085522 v4.330907591879339 h2.0400233770941476 c0.48886378382001655,0 0.7396012025319514,0.5965354456988587 0.4020700619581927,0.9550592741744349 l-3.894590083543373,4.142607261797627 c-0.10459756224373666,0.11147379540837282 -0.2499955920293558,0.17474270631582758 -0.4020700619581927,0.17474270631582758 z" class="" id="svg_3" fill="#7f7f7f" fill-opacity="1"/>
    <path d="m14.310373083853436,14.585034078504336 h-12.620747042972235 c-0.5940985803155246,0 -1.0773808451317761,-0.5633842967038367 -1.0773808451317761,-1.255952253798361 v-0.3588435010852464 c0,-0.6925679570945279 0.48328226481625447,-1.255952253798361 1.0773808451317761,-1.255952253798361 h12.620747042972235 c0.5940985803155246,0 1.0773808451317761,0.5633842967038367 1.0773808451317761,1.255952253798361 v0.3588435010852464 c0,0.6925679570945279 -0.48328226481625447,1.255952253798361 -1.0773808451317761,1.255952253798361 z" id="svg_2" class="" fill="#7f7f7f" fill-opacity="1"/>
  </g>
</svg>