<svg xmlns="http://www.w3.org/2000/svg" height="16" width="16">
  <rect id="backgroundrect" width="100%" height="100%" x="0" y="0" fill="none" stroke="none" class="" style=""/>
  <g class="currentLayer" style="">
    <title>Layer 1</title>
    <path d="m13.80315759799579,2.4652416215471997 l-1.904602801239454,-1.6937214467366246 c-0.3259182022816343,-0.2812141755616657 -0.7413615367181527,-0.4409550500604383 -1.1695607289666312,-0.4409550500604383 h-7.362591816098769 c-0.9715522510732493,0 -1.7576178145113714,0.7860655634381213 -1.7576178145113714,1.7576178145113714 v11.823633883058404 c0,0.9715522510732493 0.7860655634381213,1.7576178145113714 1.7576178145113714,1.7576178145113714 h9.267194647296952 c0.9714352023170314,0 1.7576178145113714,-0.7860655634381213 1.7576178145113714,-1.7576178145113714 v-10.130029455119269 c0,-0.5048514178351854 -0.2173178377456485,-0.9841910900877208 -0.5880571155034694,-1.316545745653444 zm-3.8858578580243437,0.4217627389643894 c0,-0.3527172145541175 0.28636333219719096,-0.6390805467513083 0.6391975955075266,-0.6390805467513083 c0.3527172145541175,0 0.6390805467513083,0.28636333219719096 0.6390805467513083,0.6390805467513083 v0.958679344505072 c0,0.3528342633103357 -0.28636333219719096,0.6391975955075266 -0.6390805467513083,0.6391975955075266 c-0.3528342633103357,0 -0.6391975955075266,-0.28636333219719096 -0.6391975955075266,-0.6391975955075266 zm-2.1301124641077096,0 c0,-0.3527172145541175 0.2862462834409728,-0.6390805467513083 0.6390805467513083,-0.6390805467513083 s0.6390805467513083,0.28636333219719096 0.6390805467513083,0.6390805467513083 v0.958679344505072 c0,0.3528342633103357 -0.2862462834409728,0.6391975955075266 -0.6390805467513083,0.6391975955075266 s-0.6390805467513083,-0.28636333219719096 -0.6390805467513083,-0.6391975955075266 zm-2.1308146368101006,0 c0,-0.3527172145541175 0.2862462834409728,-0.6390805467513083 0.6390805467513083,-0.6390805467513083 s0.6390805467513083,0.28636333219719096 0.6390805467513083,0.6390805467513083 v0.958679344505072 c0,0.3528342633103357 -0.2862462834409728,0.6391975955075266 -0.6390805467513083,0.6391975955075266 s-0.6390805467513083,-0.28636333219719096 -0.6390805467513083,-0.6391975955075266 zm-2.130229512863928,0 c0,-0.3527172145541175 0.28636333219719096,-0.6390805467513083 0.6390805467513083,-0.6390805467513083 c0.3528342633103357,0 0.6391975955075266,0.28636333219719096 0.6391975955075266,0.6390805467513083 v0.958679344505072 c0,0.3528342633103357 -0.28636333219719096,0.6391975955075266 -0.6391975955075266,0.6391975955075266 c-0.3527172145541175,0 -0.6390805467513083,-0.28636333219719096 -0.6390805467513083,-0.6391975955075266 zm8.947712898299411,10.385731915057017 c0,0.26202186446561687 -0.2173178377456485,0.4793396722525358 -0.4793396722525358,0.4793396722525358 h-7.9890335537943375 c-0.26202186446561687,0 -0.4793396722525358,-0.21731780778691906 -0.4793396722525358,-0.4793396722525358 v-4.793396722525358 c0,-0.26202186446561687 0.21731780778691906,-0.4793396722525358 0.4793396722525358,-0.4793396722525358 h7.9890335537943375 c0.26202183450688743,0 0.4793396722525358,0.21731780778691906 0.4793396722525358,0.4793396722525358 zm0,0 " id="svg_1" class="" fill="#7f7f7f" fill-opacity="1"/>
  </g>
</svg>