<svg xmlns="http://www.w3.org/2000/svg" enable-background="new 0 0 150 150" height="16" width="16" style="">
  <rect id="backgroundrect" width="100%" height="100%" x="0" y="0" fill="none" stroke="none" class="" style=""/>
  <g class="currentLayer" style="">
    <title>Layer 1</title>
    <path d="m6.74963711229897,5.746378363434765 l-2.2810078105161407,-3.2982691393979087 c2.153421577316903,-1.3837687128953085 4.9093191456273315,-1.3837687128953085 7.062740722944239,0 l-2.2776893458607192,3.2965996191067597 l-1.2536810156113982,1.8123082107864967 z" fill="#7f7f7f" id="svg_2" class="" fill-opacity="1"/>
    <path d="m1.4542408024185027,7.745760716318928 c0.07545140690221876,-1.9781179365442698 1.030907243611909,-3.817226341478152 2.602025601919561,-5.008560873446314 l2.279348578188432,3.2965117496177507 l1.1827706656060728,1.7120491238285607 z" fill="#7f7f7f" class="" fill-opacity="1" id="svg_8"/>
    <path d="m6.337361542871453,9.96270792398648 l-2.2810078105161407,3.2965117496177507 c-1.5711183583076527,-1.190631576056097 -2.5265741950173424,-3.029212764055933 -2.602025601919561,-5.006803483666155 h6.0658914060590226 z" fill="#7f7f7f" class="" fill-opacity="1" id="svg_9"/>
    <path d="m9.253680678866342,10.251710673333232 l2.2776893458607192,3.2982691393979087 c-2.152635625161672,1.3863169280765346 -4.910105097782563,1.3863169280765346 -7.062740722944239,0 l2.2810078105161407,-3.2982691393979087 l1.2503625509559768,-1.8106386904953462 z" fill="#7f7f7f" class="" fill-opacity="1" id="svg_10"/>
    <path d="m14.545758524091385,8.252416189938074 c-0.07553873491946646,1.9772392416541917 -1.0302959474911735,3.8155568211870037 -2.6003663695918497,5.006891353155164 l-2.2810078105161407,-3.2982691393979087 l-1.1828579936233203,-1.7086222137572553 z" fill="#7f7f7f" class="" fill-opacity="1" id="svg_11"/>
    <path d="m9.664297015966149,6.035381112781516 l2.2810078105161407,-3.2982691393979087 c1.570157750117926,1.192037487880223 2.5248276346723837,3.030882284347082 2.6003663695918497,5.008560873446314 h-6.062398285369105 z" fill="#7f7f7f" class="" fill-opacity="1" id="svg_12"/>
    <path d="m6.337361542871453,9.96270792398648 l-2.2810078105161407,3.2965117496177507 c-1.5711183583076527,-1.190631576056097 -2.5265741950173424,-3.029212764055933 -2.602025601919561,-5.006803483666155 h6.0658914060590226 z" fill="#7f7f7f" id="svg_4" class="" fill-opacity="1"/>
  </g>
</svg>